<svg width="76" height="41" viewBox="0 0 76 41" fill="none" xmlns="http://www.w3.org/2000/svg">
<rect x="0.5" y="0.5" width="74.3222" height="40" rx="20" fill="white" stroke="#0080F5"/>
<path d="M35.4286 11.25V12.5H40.5714V11.25C40.5714 10.5598 41.146 10 41.8571 10C42.5683 10 43.1429 10.5598 43.1429 11.25V12.5H45.0714C46.1362 12.5 47 13.3395 47 14.375V16.25H29V14.375C29 13.3395 29.8634 12.5 30.9286 12.5H32.8571V11.25C32.8571 10.5598 33.4317 10 34.1429 10C34.854 10 35.4286 10.5598 35.4286 11.25ZM29 17.5H47V28.125C47 29.1602 46.1362 30 45.0714 30H30.9286C29.8634 30 29 29.1602 29 28.125V17.5ZM31.5714 21.875C31.5714 22.2188 31.8591 22.5 32.2143 22.5H33.5C33.8536 22.5 34.1429 22.2188 34.1429 21.875V20.625C34.1429 20.2812 33.8536 20 33.5 20H32.2143C31.8591 20 31.5714 20.2812 31.5714 20.625V21.875ZM36.7143 21.875C36.7143 22.2188 37.0036 22.5 37.3571 22.5H38.6429C38.9964 22.5 39.2857 22.2188 39.2857 21.875V20.625C39.2857 20.2812 38.9964 20 38.6429 20H37.3571C37.0036 20 36.7143 20.2812 36.7143 20.625V21.875ZM42.5 20C42.1464 20 41.8571 20.2812 41.8571 20.625V21.875C41.8571 22.2188 42.1464 22.5 42.5 22.5H43.7857C44.1393 22.5 44.4286 22.2188 44.4286 21.875V20.625C44.4286 20.2812 44.1393 20 43.7857 20H42.5ZM31.5714 26.875C31.5714 27.2188 31.8591 27.5 32.2143 27.5H33.5C33.8536 27.5 34.1429 27.2188 34.1429 26.875V25.625C34.1429 25.2812 33.8536 25 33.5 25H32.2143C31.8591 25 31.5714 25.2812 31.5714 25.625V26.875ZM37.3571 25C37.0036 25 36.7143 25.2812 36.7143 25.625V26.875C36.7143 27.2188 37.0036 27.5 37.3571 27.5H38.6429C38.9964 27.5 39.2857 27.2188 39.2857 26.875V25.625C39.2857 25.2812 38.9964 25 38.6429 25H37.3571ZM41.8571 26.875C41.8571 27.2188 42.1464 27.5 42.5 27.5H43.7857C44.1393 27.5 44.4286 27.2188 44.4286 26.875V25.625C44.4286 25.2812 44.1393 25 43.7857 25H42.5C42.1464 25 41.8571 25.2812 41.8571 25.625V26.875Z" fill="#0080F5"/>
</svg>
