<svg width="76" height="41" viewBox="0 0 76 41" fill="none" xmlns="http://www.w3.org/2000/svg">
<path d="M0.5 20.5C0.5 9.4543 9.45431 0.5 20.5 0.5H54.8222C65.8679 0.5 74.8222 9.4543 74.8222 20.5C74.8222 31.5457 65.8679 40.5 54.8222 40.5H20.5C9.45429 40.5 0.5 31.5457 0.5 20.5Z" fill="white" stroke="#0080F5"/>
<path d="M34.4321 10.691C34.6491 10.2675 35.0951 10 35.5813 10H40.4188C40.9049 10 41.3509 10.2675 41.5679 10.691L41.8571 11.25H45.7143C46.4254 11.25 47 11.8098 47 12.5C47 13.1902 46.4254 13.75 45.7143 13.75H30.2857C29.5758 13.75 29 13.1902 29 12.5C29 11.8098 29.5758 11.25 30.2857 11.25H34.1429L34.4321 10.691ZM30.2496 15H45.7143V27.5C45.7143 28.8789 44.5612 30 43.1429 30H32.821C31.4368 30 30.2496 28.8789 30.2496 27.5V15ZM33.4638 18.125V26.875C33.4638 27.2188 33.7893 27.5 34.1067 27.5C34.4964 27.5 34.7496 27.2188 34.7496 26.875V18.125C34.7496 17.7812 34.4964 17.5 34.1067 17.5C33.7893 17.5 33.4638 17.7812 33.4638 18.125ZM37.321 18.125V26.875C37.321 27.2188 37.6464 27.5 37.9638 27.5C38.3536 27.5 38.6429 27.2188 38.6429 26.875V18.125C38.6429 17.7812 38.3536 17.5 37.9638 17.5C37.6464 17.5 37.321 17.7812 37.321 18.125ZM41.2143 18.125V26.875C41.2143 27.2188 41.5036 27.5 41.8571 27.5C42.2107 27.5 42.5 27.2188 42.5 26.875V18.125C42.5 17.7812 42.2107 17.5 41.8571 17.5C41.5036 17.5 41.2143 17.7812 41.2143 18.125Z" fill="#0080F5"/>
</svg>
